<svg enable-background="new 0 0 64 64" height="64" viewBox="0 0 64 64" width="64" xmlns="http://www.w3.org/2000/svg"><path d="m37.66 9h-12l6-6z" fill="#e6e9ed"/><path d="m63.66 28v21c0 2.21-1.79 4-4 4h-9v-4h9v-21h-9v-4h9c2.21 0 4 1.79 4 4z" fill="#da4453"/><path d="m50.66 53v2c0 3.319-2.69 6-6 6h-26.01c-3.311 0-6-2.681-6-6v-34.999h38.01v3.999 4 21zm-26.019-13.01v3c0 3.869 3.14 7 7 7 3.869 0 7-3.131 7-7v-3-2c0-3.86-3.131-7-7-7-3.87 0-7 3.14-7 7z" fill="#ed5565"/><path d="m38.641 37.99v2c0 3.869-3.131 7-7 7 0 0 4-4 0-8s0-8 0-8c3.869 0 7 3.14 7 7z" fill="#844747"/><path d="m31.641 46.99c3.869 0 7-3.131 7-7v3c0 3.869-3.131 7-7 7-3.86 0-7-3.131-7-7v-3c0 3.869 3.139 7 7 7z" fill="#773e3e"/><path d="m31.641 38.99c4 4 0 8 0 8-3.86 0-7-3.131-7-7v-2c0-3.86 3.13-7 7-7 0 0-4 4 0 8z" fill="#965353"/><path d="m49.653 21.001h-36.002c-.553 0-1-.447-1-1s.447-1 1-1h36.002c.553 0 1 .447 1 1s-.447 1-1 1z" fill="#ed5565"/><path d="m38.652 10.001h-37.312c-.553 0-1-.447-1-1s.447-1 1-1h37.313c.553 0 1 .447 1 1s-.448 1-1.001 1z" fill="#aab2bd"/><path d="m38.656 7.997h-14.006c-.553 0-1 .447-1 1 0 .007.004.013.004.02v.985c0 2.754 2.238 4.992 4.99 4.998.004 0 .006.002.01.002h5.998c.004 0 .006-.002.01-.002 2.752-.006 4.99-2.244 4.99-4.998v-.985c0-.007.004-.013.004-.02 0-.553-.447-1-1-1z" fill="#ccd1d9"/></svg>