<svg fill="none" height="97" viewBox="0 0 96 97" width="96" xmlns="http://www.w3.org/2000/svg" xmlns:xlink="http://www.w3.org/1999/xlink"><clipPath id="a"><path d="m0 .801025h96v96h-96z"/></clipPath><g clip-path="url(#a)"><path d="m36.8267 19.1364c9.8635-.1872 18.1732 16.1918 18.454 30.9819.2808 14.79-7.5306 24.661-17.394 24.8483s-18.0438-9.3801-18.3246-24.1702 8.0235-31.4845 17.2646-31.66z" fill="#ede6cf"/><path clip-rule="evenodd" d="m51.3884 28.0269c3.5137 6.2178 5.7454 14.3366 5.8919 22.0534.2912 15.3379-7.9035 26.6685-19.3556 26.8859-11.4522.2175-20.0711-10.7939-20.3623-26.1318-.147-7.7444 1.9438-15.9492 5.2932-22.2834 1.6766-3.1706 3.7103-5.9519 6.0158-7.9764 2.3033-2.0225 4.9908-3.3822 7.9174-3.4378 6.0879-.1156 11.1632 4.8091 14.5996 10.8901zm3.8923 22.0914c-.2808-14.7901-8.5905-31.1691-18.454-30.9819-9.2411.1755-17.5454 16.8699-17.2646 31.66s8.4612 24.3574 18.3246 24.1702c9.8634-.1873 17.6748-10.0583 17.394-24.8483z" fill="#968960" fill-rule="evenodd"/><path clip-rule="evenodd" d="m42.8763 21.1103c3.7772 5.8386 6.2532 14.0799 6.401 21.864.2701 14.2279-7.2989 23.7248-16.8548 23.9062-3.981.0756-7.6788-1.4775-10.6579-4.3441 3.1182 7.8974 9.2065 12.5615 16.1221 12.4302 9.8635-.1873 17.6748-10.0582 17.394-24.8483-.2208-11.6283-5.4046-24.2387-12.4044-29.008z" fill="#dbd2b2" fill-rule="evenodd"/><path d="m33.0019 28.2887c4.0581.8301-.7351 6.3781 1.1231 12.2623 3 9.5-2.2461 13.8946-6.3041 13.0644-4.0581-.8301-6.1881-7.1727-4.7574-14.1665s5.8803-11.9904 9.9384-11.1602z" fill="#fef8e3"/><path clip-rule="evenodd" d="m28.0102 40.394c-.1349 1.547-.1352 2.9458-.1352 3.407 0 .8284-.6716 1.5-1.5 1.5s-1.5-.6716-1.5-1.5v-.003c0-.4795 0-1.9842.1466-3.6646.1408-1.6151.4348-3.655 1.1411-5.056.3729-.7398 1.2749-1.0371 2.0147-.6642.7397.3729 1.0371 1.2749.6642 2.0146-.4209.8349-.6905 2.3504-.8314 3.9662z" fill="#fff" fill-rule="evenodd"/><g fill="#cfc59e"><path d="m50.6171 41.1185c.793.6328.992 1.7021.4443 2.3883-.5476.6863-1.6344.7297-2.4274.0969s-.992-1.7021-.4443-2.3884c.5476-.6863 1.6344-.7296 2.4274-.0968z"/><path d="m49.7406 37.0097c.4513.3601.5645.9687.2529 1.3592s-.9301.4152-1.3814.0551-.5645-.9686-.2529-1.3592c.3117-.3905.9301-.4152 1.3814-.0551z"/><path d="m46.5914 38.9691c.4513.3601.5646.9686.2529 1.3592-.3116.3905-.9301.4152-1.3814.0551-.4512-.3602-.5645-.9687-.2528-1.3592.3116-.3905.9301-.4152 1.3813-.0551z"/><path d="m44.961 31.5484c.2235.1784.2795.4797.1252.6731s-.4606.2056-.6841.0273c-.2234-.1783-.2795-.4797-.1252-.6731s.4606-.2056.6841-.0273z"/><path d="m45.6559 26.7162c.2235.1783.2795.4796.1252.673s-.4606.2056-.6841.0273-.2795-.4797-.1252-.673c.1543-.1934.4606-.2057.6841-.0273z"/><path d="m51.7862 39.4356c.2235.1784.2796.4797.1253.6731s-.4606.2056-.6841.0273-.2795-.4797-.1252-.6731.4606-.2056.684-.0273z"/><path d="m52.4432 43.4757c.2235.1783.2795.4797.1252.6731-.1543.1933-.4606.2056-.6841.0272-.2235-.1783-.2795-.4796-.1252-.673s.4606-.2056.6841-.0273z"/><path d="m46.2822 43.3858c.3376.2694.4223.7247.1892 1.0168-.2332.2922-.6959.3107-1.0335.0413-.3377-.2694-.4224-.7247-.1892-1.0169.2331-.2922.6958-.3106 1.0335-.0412z"/><path d="m53.3637 49.6618c.3376.2694.4223.7247.1892 1.0168-.2332.2922-.6959.3107-1.0335.0413s-.4223-.7247-.1892-1.0169c.2332-.2922.6959-.3106 1.0335-.0412z"/><path d="m49.9822 48.7448c.3376.2694.4223.7247.1892 1.0169-.2332.2921-.6959.3106-1.0335.0412s-.4223-.7247-.1892-1.0169.6958-.3106 1.0335-.0412z"/><path d="m49.3632 45.821c.4513.3601.5645.9686.2528 1.3592-.3116.3905-.93.4152-1.3813.0551s-.5645-.9686-.2529-1.3592c.3116-.3905.9301-.4152 1.3814-.0551z"/><path d="m49.1023 33.3189c.4513.3602.5645.9687.2529 1.3592s-.9301.4152-1.3814.0551-.5645-.9686-.2529-1.3592c.3117-.3905.9301-.4152 1.3814-.0551z"/><path d="m46.2602 34.3717c.5868.4682.734 1.2593.3288 1.767-.4051.5078-1.2092.5398-1.7959.0717-.5868-.4682-.7339-1.2593-.3288-1.7671.4052-.5077 1.2092-.5398 1.7959-.0716z"/><path d="m47.2638 29.3125c.5867.4682.7339 1.2593.3287 1.767-.4051.5078-1.2092.5398-1.7959.0717-.5867-.4682-.7339-1.2593-.3288-1.7671.4052-.5077 1.2093-.5398 1.796-.0716z"/><path d="m52.5659 45.8816c.5867.4682.7339 1.2593.3288 1.767-.4052.5078-1.2093.5398-1.796.0717-.5867-.4682-.7339-1.2593-.3287-1.7671.4051-.5077 1.2092-.5398 1.7959-.0716z"/><path d="m52.9435 52.9601c.5867.4681.7339 1.2593.3287 1.767-.4051.5078-1.2092.5398-1.7959.0717-.5867-.4682-.7339-1.2594-.3288-1.7671.4052-.5077 1.2093-.5398 1.796-.0716z"/></g><path d="m65.375 84.9261c14.875-4.875 21.9374-21.125 20.2467-31.9041l-50.6217 17.9041c-.5 1.85.1052 6.353 1.5625 8.4375 4.9375 7.0625 16.6546 9.547 28.8125 5.5625z" fill="#fff"/><path clip-rule="evenodd" d="m86.6459 51.3041c.5108.3045.8595.8205.9517 1.408.927 5.9099-.5508 13.1207-4.1474 19.4626-3.6136 6.3717-9.4607 12.0328-17.4524 14.6519-12.5654 4.1181-25.413 1.7811-31.0745-6.3171-.9797-1.4013-1.5588-3.3922-1.8486-5.1222-.2867-1.7113-.3683-3.6405-.0055-4.9831.1716-.6346.6441-1.1445 1.2639-1.3637l50.6217-17.9041c.5606-.1982 1.1804-.1368 1.6911.1677zm-1.0242 1.7179-50.6217 17.9041c-.5 1.85.1052 6.353 1.5625 8.4375 4.9375 7.0625 16.6546 9.547 28.8125 5.5625 13.9605-4.5753 21.0395-19.17 20.4595-29.858-.038-.7001-.1088-1.3834-.2128-2.0461z" fill="#968960" fill-rule="evenodd"/><path clip-rule="evenodd" d="m34.8273 72.6109 1.869-2.2848-1.6963.6c-.1179.4362-.1744 1.02-.1727 1.6848zm50.7944-19.5889c1.6687 10.6386-5.1892 26.6066-19.6694 31.7078 7.094-7.923 9.1845-19.1608 7.2352-27.3101z" fill="#f4f3db" fill-rule="evenodd"/><path clip-rule="evenodd" d="m71.8984 81.7898c10.3836-6.7881 15.1441-19.7097 13.7233-28.7678l-6.2549 2.2122c1.6311 8.0921-.5655 18.8896-7.4684 26.5556zm-36.5821-5.4417 6.3694-7.7867-6.6858 2.3647c-.3168 1.1722-.1899 3.4096.3164 5.422z" fill="#dedcb1" fill-rule="evenodd"/><path d="m85.2246 51.9134c2.0579 4.8384-7.4863 13.5296-21.3175 19.4122-13.8312 5.8827-26.7118 6.7292-28.7696 1.8908-2.0579-4.8384 7.4863-13.5295 21.3175-19.4122 13.8312-5.8826 26.7118-6.7292 28.7696-1.8908z" fill="#fdfce4"/><path clip-rule="evenodd" d="m81.8708 62.7068c-4.064 3.7007-10.1149 7.454-17.1809 10.4593s-13.9668 4.7606-19.4515 5.121c-2.7325.1796-5.2281.0211-7.2523-.5805-2.0083-.5969-3.8481-1.73-4.6891-3.7074-.841-1.9773-.3811-4.0886.582-5.9492.9707-1.8754 2.5875-3.783 4.6122-5.6268 4.064-3.7008 10.115-7.4541 17.181-10.4594s13.9667-4.7605 19.4514-5.121c2.7326-.1796 5.2281-.021 7.2524.5806 2.0083.5968 3.8481 1.73 4.6891 3.7073.841 1.9774.3811 4.0886-.582 5.9493-.9707 1.8754-2.5875 3.783-4.6123 5.6268zm-17.9637 8.6189c13.8312-5.8827 23.3754-14.5738 21.3175-19.4122-2.0578-4.8384-14.9384-3.9919-28.7696 1.8908-13.8312 5.8826-23.3754 14.5737-21.3175 19.4121 2.0578 4.8384 14.9384 3.9919 28.7696-1.8907z" fill="#968960" fill-rule="evenodd"/><path d="m68.4327 58.0945c1.587 3.4955-4.0664 9.4798-12.6271 13.3664-8.5607 3.8867-16.787 4.2038-18.3739.7084-1.587-3.4954 4.0664-9.4797 12.6271-13.3664 8.5607-3.8866 16.787-4.2038 18.3739-.7084z" fill="#fff"/><path clip-rule="evenodd" d="m71.7235 49.875c6.3663-.9755 10.5646.3745 12.0187 1.3439.4595.3064.5837.9272.2773 1.3868-.3063.4595-.9272.5837-1.3867.2773-.9209-.6139-4.5727-1.9556-10.6064-1.0311-5.3445.819-7.9785 1.7528-9.6642 2.3505-.2393.0849-.4595.1629-.6657.233-.5229.1776-1.0908-.1024-1.2684-.6253-.1776-.523.1023-1.0909.6253-1.2685.202-.0686.4198-.1458.6581-.2303 1.7134-.6073 4.484-1.5893 10.012-2.4363z" fill="#e6e4bc" fill-rule="evenodd"/><path d="m61.2256 69.1425c-.1046-.5671-.9187-.8923-1.8182-.7263s-1.5439.7602-1.4393 1.3273c.1046.5672.9187.8923 1.8182.7264.8995-.166 1.5439-.7603 1.4393-1.3274z" fill="#e9e8cb"/><path d="m67.2521 66.1018c-.1046-.5671-.9187-.8923-1.8182-.7264-.8996.166-1.544.7603-1.4393 1.3274.1046.5671.9186.8923 1.8182.7263.8995-.166 1.5439-.7602 1.4393-1.3273z" fill="#e9e8cb"/><path d="m52.6095 67.6286c-.1046-.5671-.9187-.8923-1.8182-.7263s-1.5439.7602-1.4393 1.3273.9187.8923 1.8182.7264c.8995-.166 1.5439-.7603 1.4393-1.3274z" fill="#e9e8cb"/><path d="m46.3623 72.742c-.1046-.5671-.9186-.8923-1.8182-.7263-.8995.166-1.5439.7602-1.4393 1.3273s.9187.8923 1.8182.7264c.8996-.166 1.544-.7603 1.4393-1.3274z" fill="#e9e8cb"/><path d="m56.3315 70.9521c-.0724-.3923-.6355-.6172-1.2577-.5024s-1.068.5258-.9956.9181.6355.6173 1.2577.5025 1.068-.5259.9956-.9182z" fill="#e9e8cb"/><path d="m48.206 69.5643c-.0724-.3923-.6355-.6172-1.2578-.5024-.6222.1148-1.0679.5258-.9956.9181.0724.3923.6355.6172 1.2577.5024.6223-.1148 1.068-.5258.9957-.9181z" fill="#e9e8cb"/><path d="m39.7863 72.8953c-.0723-.3922-.6354-.6172-1.2577-.5024-.6222.1148-1.068.5259-.9956.9182s.6355.6172 1.2577.5024c.6223-.1148 1.068-.5259.9956-.9182z" fill="#e9e8cb"/><path d="m56.487 67.97c-.0724-.3922-.6355-.6172-1.2577-.5024s-1.068.5259-.9956.9182.6355.6172 1.2577.5024 1.068-.5259.9956-.9182z" fill="#e9e8cb"/><path d="m62.6323 65.9643c-.0724-.3923-.6355-.6172-1.2577-.5024-.6223.1148-1.068.5259-.9956.9181.0723.3923.6354.6173 1.2577.5025.6222-.1148 1.068-.5259.9956-.9182z" fill="#e9e8cb"/><path d="m52.5324 70.8377c-.0723-.3923-.6354-.6172-1.2577-.5024-.6222.1148-1.068.5259-.9956.9182.0724.3922.6355.6172 1.2577.5024.6223-.1148 1.068-.5259.9956-.9182z" fill="#e9e8cb"/><path d="m49.1686 72.1086c-.0507-.2746-.4449-.4321-.8805-.3517-.4355.0803-.7476.3681-.6969.6427s.4448.4321.8804.3517c.4356-.0803.7476-.3681.697-.6427z" fill="#e9e8cb"/><path d="m42.4869 71.5252c-.0506-.2746-.4448-.4321-.8804-.3517s-.7476.3681-.697.6427c.0507.2747.4449.4321.8805.3518.4356-.0804.7476-.3682.6969-.6428z" fill="#e9e8cb"/><path d="m58.6487 65.9128c-.0507-.2746-.4449-.4321-.8805-.3517-.4355.0803-.7476.3681-.6969.6427s.4448.4321.8804.3517c.4356-.0803.7476-.3681.697-.6427z" fill="#e9e8cb"/><path d="m69.0404 63.7126c-.0507-.2746-.4448-.4321-.8804-.3517s-.7477.3681-.697.6427.4449.4321.8804.3517c.4356-.0803.7477-.3681.697-.6427z" fill="#e9e8cb"/><path d="m64.1706 64.0559c-.037-.2005-.3249-.3155-.643-.2568s-.546.2688-.509.4694c.037.2005.3249.3155.643.2568s.546-.2688.509-.4694z" fill="#e9e8cb"/><path d="m64.6813 59.9331c.7251 1.705-2.5615 4.735-7.341 6.7678-4.7794 2.0327-9.2417 2.2985-9.9668.5936-.7252-1.705 2.5615-4.735 7.3409-6.7678 4.7794-2.0327 9.2417-2.2985 9.9669-.5936z" fill="#ffb72b"/><path clip-rule="evenodd" d="m64.4306 64.6645c-1.537 1.417-3.7641 2.795-6.3075 3.8767-2.5434 1.0818-5.0808 1.7302-7.1677 1.8545-1.0341.0616-2.0717.0018-2.979-.2774-.8955-.2755-1.942-.8622-2.4434-2.0411-.5014-1.179-.1981-2.3397.2245-3.1759.4283-.8472 1.1049-1.6361 1.8666-2.3383 1.537-1.417 3.7641-2.795 6.3075-3.8768 2.5434-1.0817 5.0808-1.7301 7.1677-1.8544 1.0341-.0616 2.0717-.0018 2.979.2774.8955.2755 1.942.8621 2.4434 2.0411s.1981 2.3397-.2245 3.1759c-.4283.8472-1.1049 1.636-1.8666 2.3383zm-7.0903 2.0363c4.7794-2.0328 8.0661-5.0628 7.341-6.7677-.7252-1.7049-5.1875-1.4392-9.9669.5936-4.7794 2.0327-8.0661 5.0628-7.3409 6.7677.7251 1.7049 5.1874 1.4392 9.9668-.5936z" fill="#d89a24" fill-rule="evenodd"/><path clip-rule="evenodd" d="m63.5824 60.7205c-.0456.5504-.5287.9596-1.0791.914-1.4611-.1211-3.3152.3729-4.0584.6445-.5187.1897-1.0929-.0771-1.2825-.5958-.1897-.5187.0771-1.093.5958-1.2826.8529-.3117 3.0268-.9154 4.9103-.7593.5504.0456.9596.5288.9139 1.0792z" fill="#ffe58a" fill-rule="evenodd"/></g></svg>