<svg enable-background="new 0 0 470 470" viewBox="0 0 470 470" xmlns="http://www.w3.org/2000/svg"><path d="m152.962 355c21.166 0 38.385-17.22 38.385-38.386 0-8.326-2.62-16.246-7.577-22.902l-30.808-41.229-30.815 41.239c-4.95 6.646-7.57 14.565-7.57 22.893 0 21.165 17.219 38.385 38.385 38.385z" fill="#fff"/><path d="m273.452 402.5c0-4.143 3.357-7.5 7.5-7.5h126.576v-187.548h-126.576c-4.142 0-7.499-3.356-7.5-7.498h-15v202.55s15 0 15-.004z" fill="#98d9d5"/><path d="m62.472 395h180.98v-187.548h-180.98zm84.482-159.537c1.416-1.895 3.643-3.011 6.008-3.011s4.592 1.116 6.008 3.011l36.823 49.28c6.907 9.274 10.554 20.292 10.554 31.871 0 29.437-23.949 53.386-53.385 53.386s-53.385-23.949-53.385-53.386c0-11.579 3.647-22.597 10.547-31.861z" fill="#c1e8e6"/><g fill="#ffcc75"><path d="m407.528 410h-126.576c-4.141 0-7.497-3.355-7.5-7.496h-15v52.496h149.076z"/><path d="m273.452 199.952c0-4.143 3.357-7.5 7.5-7.5h126.576v-45h-149.076v52.502s15 0 15-.002z"/><path d="m267.572 132.452h130.836l-65.418-74.139z"/></g><path d="m167.01 39.478c4.141 0 7.498 3.356 7.5 7.497h15c.002-4.141 3.359-7.497 7.5-7.497h128.48v-24.478h-180.98v24.478z" fill="#f2ebd9"/><path d="m174.51 46.978c0 4.143-3.358 7.5-7.5 7.5h-26.616l-68.802 77.975h175.976l68.802-77.975h-119.36c-4.142 0-7.5-3.357-7.5-7.5 0-.003-15-.003-15 0z" fill="#fff"/><path d="m62.472 410h180.98v45h-180.98z" fill="#f2ebd9"/><path d="m62.472 147.452h180.98v45h-180.98z" fill="#f2ebd9"/><path d="m422.492 139.231c-.01-.103-.028-.203-.042-.305-.018-.131-.035-.263-.06-.394-.023-.123-.054-.243-.084-.363-.026-.106-.051-.212-.081-.316-.037-.126-.079-.25-.122-.374-.034-.096-.068-.192-.105-.288-.048-.122-.101-.242-.155-.36-.043-.095-.088-.188-.135-.281-.057-.112-.117-.223-.18-.332-.055-.096-.113-.19-.172-.284-.064-.101-.129-.201-.198-.298-.068-.096-.139-.189-.212-.283-.07-.09-.14-.18-.214-.266-.027-.032-.051-.066-.078-.097l-80.164-90.848v-36.642c0-4.143-3.357-7.5-7.5-7.5h-195.98c-4.142 0-7.5 3.357-7.5 7.5v36.642l-80.162 90.848c-.027.03-.05.063-.076.094-.077.089-.149.182-.221.275-.07.09-.139.181-.204.273-.071.101-.138.204-.205.308-.057.09-.113.181-.166.274-.065.112-.126.225-.185.341-.046.09-.089.181-.131.272-.056.121-.109.243-.158.367-.037.093-.07.187-.103.281-.044.125-.087.251-.124.379-.03.103-.055.207-.08.312-.03.122-.061.243-.084.367-.025.129-.042.26-.06.391-.014.103-.032.204-.042.308-.023.238-.036.479-.036.72v322.548c0 4.143 3.358 7.5 7.5 7.5h360.057c4.143 0 7.5-3.357 7.5-7.5v-322.548c-.002-.242-.015-.482-.038-.721zm-179.04 8.221v45h-180.98v-45zm0 247.548h-180.98v-187.548h180.98zm24.12-262.548 65.418-74.139 65.418 74.139zm57.918-117.452v24.478h-128.48c-4.141 0-7.498 3.356-7.5 7.497 0 4.146 3.358 7.503 7.5 7.503h119.36l-68.802 77.975h-175.976l68.802-77.975h26.616c4.142 0 7.5-3.357 7.5-7.5-.002-4.144-3.359-7.5-7.5-7.5h-22.5v-24.478zm-263.018 395h180.98v45h-180.98zm195.98-262.548h149.076v45h-126.576c-4.143 0-7.5 3.357-7.5 7.5.001 4.144 3.358 7.5 7.5 7.5h126.576v187.548h-126.576c-4.143 0-7.5 3.357-7.5 7.5.003 4.145 3.359 7.5 7.5 7.5h126.576v45h-149.076z" fill="#082947"/><path d="m152.962 370c29.437 0 53.385-23.949 53.385-53.386 0-11.579-3.647-22.597-10.554-31.871l-36.823-49.28c-1.416-1.895-3.643-3.011-6.008-3.011s-4.592 1.116-6.008 3.011l-36.83 49.29c-6.9 9.265-10.547 20.282-10.547 31.861 0 29.437 23.948 53.386 53.385 53.386zm0-117.518 30.808 41.229c4.957 6.656 7.577 14.576 7.577 22.902 0 21.166-17.22 38.386-38.385 38.386s-38.385-17.22-38.385-38.386c0-8.327 2.62-16.246 7.57-22.893z" fill="#082947"/></svg>