<svg fill="none" height="96" viewBox="0 0 96 96" width="96" xmlns="http://www.w3.org/2000/svg"><path clip-rule="evenodd" d="m72.5565 27.8143c.6203.5491.678 1.4971.1289 2.1174-.8431.9524-1.7164 2.104-2.7568 3.4757-2.8623 3.7742-6.9888 9.2153-15.2283 16.7613-18.224 16.69-19.0026 31.4209-18.0972 36.7028.14.8165-.4084 1.5919-1.2249 1.7319-.8166.14-1.5919-.4085-1.7319-1.225-1.0945-6.3847.1269-22.1122 19.0279-39.4221 8.0156-7.341 11.8379-12.3839 14.6884-16.1447 1.1094-1.4637 2.0716-2.7332 3.0765-3.8684.5491-.6203 1.4971-.678 2.1174-.1289z" fill="#c46d33" fill-rule="evenodd"/><path d="m70.4852 29.8096c.0449-2.793 1.7399-8.5572 8.161-9.27-.4558 3.2509-2.7261 9.6563-8.161 9.27z" fill="#f79b47"/><path clip-rule="evenodd" d="m70.3434 31.8045c-1.0592-.0753-1.8749-.9653-1.8579-2.027.0274-1.7056.5418-4.23 2.0165-6.4795 1.5232-2.3235 4.0586-4.3171 7.9236-4.7462.6138-.0681 1.2246.1511 1.655.594.4304.443.632 1.0599.5463 1.6715-.2566 1.8302-1.0141 4.5529-2.529 6.8293-1.5394 2.3132-4.0667 4.4201-7.7545 4.1579zm.8622-1.9834c.4527-.0184.8813-.0858 1.2869-.1954 3.1375-.8477 4.8958-4.2216 5.699-6.997.2209-.7633.3695-1.4813.4547-2.0891-.7691.0854-1.4705.2433-2.1093.4598-3.6178 1.2265-5.2302 4.3352-5.7975 6.8218-.0864.3785-.1485.7425-.1898 1.0833-.0395.3255-.0599.6297-.0644.9051.2466.0175.4867.021.7204.0115z" fill="#c36d32" fill-rule="evenodd"/><path d="m65.3529 34.2265c-1.1869-2.5286-2.197-8.4513 3.2579-11.913 1.019 3.1206 1.794 9.8721-3.2579 11.913z" fill="#f2a637"/><path clip-rule="evenodd" d="m66.102 36.081c-.9846.3977-2.1084-.0433-2.5596-1.0046-.7248-1.5442-1.3719-4.0379-1.0356-6.7065.3474-2.7565 1.7489-5.6613 5.0323-7.745.5214-.3309 1.1665-.4024 1.7478-.1936.5812.2088 1.0334.6744 1.2251 1.2614.5736 1.7568 1.0895 4.5354.7289 7.246-.3664 2.7543-1.711 5.7574-5.1389 7.1423zm-.0969-2.1606c.3985-.2154.7539-.4643 1.0701-.7409 2.4459-2.1402 2.543-5.9435 2.045-8.7895-.137-.7827-.319-1.4931-.5095-2.0765-.6534.4147-1.2141.8647-1.6928 1.3399-2.7109 2.6913-2.7934 6.1924-2.2104 8.6754.0887.3779.1928.7322.3055 1.0565.1075.3097.2228.592.3399.8413.2292-.0926.4464-.1949.6522-.3062z" fill="#bc7104" fill-rule="evenodd"/><path d="m59.4188 40.9682c-1.4948-2.5185-3.1488-8.597 2.1932-12.7621 1.3794 3.1534 2.872 10.1206-2.1932 12.7621z" fill="#f2a637"/><path clip-rule="evenodd" d="m60.3435 42.7416c-.9415.4911-2.1027.1606-2.6447-.7526-.9052-1.5251-1.8265-4.044-1.7464-6.8416.0826-2.886 1.2395-6.0311 4.4297-8.5185.4871-.3798 1.1222-.5132 1.7209-.3615.5987.1516 1.0937.5713 1.3413 1.1372.7725 1.766 1.5876 4.5988 1.4865 7.4455-.1026 2.8909-1.1921 6.1209-4.5873 7.8915zm-.2752-2.1589c.3638-.2448.6864-.5156.9715-.8082 2.4402-2.5048 2.123-6.6002 1.2848-9.5575-.2157-.7612-.466-1.447-.7127-2.0109-.6063.4727-1.1224.9701-1.5589 1.4841-2.6655 3.1386-2.3609 6.8979-1.468 9.456.1223.3503.2556.678.3938.9786.1436.3122.2925.5952.4399.8435.2299-.1199.4462-.2486.6496-.3856z" fill="#bc7104" fill-rule="evenodd"/><path d="m52.4786 48.5356c-1.585-2.6706-3.3388-9.1159 2.3255-13.5324 1.4627 3.3437 3.0454 10.7314-2.3255 13.5324z" fill="#f2a637"/><path clip-rule="evenodd" d="m53.4033 50.309c-.9415.491-2.1027.1606-2.6447-.7526-.9503-1.6012-1.9191-4.2498-1.835-7.1895.0867-3.0282 1.2993-6.3278 4.6507-8.9409.487-.3798 1.1222-.5132 1.7209-.3616.5987.1517 1.0937.5714 1.3412 1.1372.8142 1.8613 1.6726 4.8467 1.5663 7.8423-.108 3.0397-1.2513 6.4147-4.7994 8.2651zm-.236-2.1822c.3486-.2345.6615-.4916.9415-.7678 2.7202-2.6833 2.3402-7.1728 1.4139-10.3525-.2201-.7557-.4711-1.4374-.7186-2.0033-.6017.4691-1.1197.9611-1.563 1.4691-2.9643 3.396-2.5937 7.5044-1.6057 10.2465.1182.3282.2454.6369.3767.9224.1522.3311.3101.6311.4664.8944.2437-.1271.4731-.2636.6888-.4088z" fill="#bc7104" fill-rule="evenodd"/><path d="m46.5255 56.5203c-1.8688-2.7079-4.1896-9.3935 1.4776-14.4721 1.7883 3.4283 3.9965 11.1223-1.4776 14.4721z" fill="#f2a637"/><path clip-rule="evenodd" d="m47.5695 58.2263c-.9058.5543-2.0869.304-2.69-.57-1.11-1.6084-2.3165-4.3164-2.4395-7.4034-.1266-3.1755.9045-6.7154 4.2285-9.6941.4599-.4122 1.0844-.5887 1.6921-.4784.6076.1104 1.1302.4953 1.4159 1.0428.9897 1.8975 2.1064 4.9733 2.2102 8.1247.1053 3.1955-.8504 6.7957-4.4172 8.9784zm-.3455-2.188c.3169-.2463.6019-.5099.8572-.7884 2.8122-3.0667 2.0297-7.9281.7811-11.2595-.2749-.7333-.5724-1.3926-.8591-1.9422-.5643.5057-1.0493 1.0273-1.4636 1.5593-3.0206 3.8797-2.273 8.3134-.988 11.1634.1341.2973.274.5774.4161.8378.185.339.3736.6447.5579.9116.2483-.152.4809-.3129.6984-.482z" fill="#bc7104" fill-rule="evenodd"/><path d="m41.2701 65.8194c-2.5119-2.6004-6.1551-9.3961-.6323-15.7757 2.5357 3.3867 6.2122 11.2833.6323 15.7757z" fill="#f2a637"/><path clip-rule="evenodd" d="m42.518 67.3756c-.8072.6499-1.9728.58-2.6889-.1613-1.4709-1.5228-3.2324-4.2092-3.8523-7.4822-.6384-3.3703-.0443-7.3 3.1533-10.9937.397-.4586.979-.7139 1.5831-.6945s1.1655.3113 1.527.7942c1.3927 1.8602 3.1148 4.962 3.7241 8.3095.6204 3.4087.1071 7.3671-3.4463 10.228zm-.1275-2.6405c.0984-.1157.1923-.2328.2817-.3514 2.8981-3.8437 1.1118-9.1781-.8867-12.5991-.3853-.6596-.7785-1.248-1.1476-1.7409-.4866.5621-.902 1.1274-1.2534 1.6928-3.6362 5.8518-.4049 11.7116 1.8857 14.0829.4258-.3428.7977-.7054 1.1203-1.0843z" fill="#bc7104" fill-rule="evenodd"/><path d="m65.7978 36.3165c1.1176-2.5599 4.903-7.2258 11.1029-5.4091-1.6734 2.8242-6.2367 7.86-11.1029 5.4091z" fill="#f79b47"/><path clip-rule="evenodd" d="m64.8981 38.1028c-.9484-.4777-1.3582-1.6133-.9333-2.5865.6825-1.5633 2.13-3.6945 4.3577-5.2019 2.3009-1.5571 5.4087-2.4198 9.1405-1.3263.5927.1736 1.0719.6113 1.2984 1.1859.2264.5746.1747 1.2216-.1401 1.7529-.9421 1.5899-2.6902 3.8104-4.9653 5.3273-2.3119 1.5414-5.456 2.5116-8.7579.8486zm1.5599-1.498c.4248.1575.8463.2605 1.2628.3156 3.2219.4268 6.1445-2.0089 7.9552-4.2605.498-.6192.9118-1.2245 1.2247-1.7525-.7427-.2176-1.4507-.3422-2.1237-.3886-3.811-.2624-6.4968 1.9849-7.9785 4.0609-.2256.3159-.4232.6279-.5926.9265-.1619.2851-.298.558-.4082.8104.2208.1112.441.207.6603.2882z" fill="#c36d32" fill-rule="evenodd"/><path d="m59.7478 42.9937c1.3518-2.5981 5.6444-7.2087 12.0003-4.866-1.952 2.8349-7.0849 7.7769-12.0003 4.866z" fill="#f79b47"/><path clip-rule="evenodd" d="m58.7287 44.7145c-.9137-.5411-1.2452-1.7019-.7551-2.644.8187-1.5733 2.4731-3.6843 4.8923-5.0914 2.4958-1.4517 5.7782-2.127 9.5739-.7279.5795.2135 1.0278.6829 1.2146 1.2715.1868.5887.0912 1.2306-.2591 1.7393-1.0932 1.5877-3.0703 3.7739-5.5424 5.1891-2.5105 1.4372-5.8294 2.2146-9.1242.2634zm1.6893-1.3722c.3998.1801.8001.3114 1.1989.3993 3.4151.7526 6.7276-1.6764 8.7984-3.9479.533-.5848.9837-1.159 1.3328-1.666-.7213-.2658-1.4161-.4422-2.083-.542-4.0723-.6098-7.1059 1.6312-8.8087 3.7388-.2331.2886-.4413.5747-.6238.8506-.1896.2867-.3515.5624-.4847.8186.223.1321.4465.248.6701.3486z" fill="#c36d32" fill-rule="evenodd"/><path d="m52.8276 50.6833c1.4334-2.7549 5.9851-7.6437 12.7245-5.1596-2.0698 3.0059-7.5124 8.2462-12.7245 5.1596z" fill="#f79b47"/><path clip-rule="evenodd" d="m51.8085 52.4042c-.9137-.5411-1.2452-1.702-.7551-2.644.8594-1.6518 2.599-3.8716 5.1412-5.3502 2.6187-1.5231 6.0617-2.2327 10.0492-.7629.5795.2136 1.0278.6829 1.2146 1.2716.1868.5886.0912 1.2306-.259 1.7392-1.1521 1.6733-3.2362 3.9769-5.8375 5.466-2.6398 1.5112-6.1103 2.3193-9.5534.2803zm1.7297-1.3512c.3831.1725.7665.3028 1.1489.3951 3.7142.8964 7.3285-1.7938 9.5418-4.2575.526-.5855.9729-1.1582 1.3232-1.6669-.7158-.2639-1.407-.4446-2.0724-.5534-4.4486-.728-7.744 1.7532-9.5529 4.0386-.2166.2736-.4118.5443-.5852.8064-.201.304-.3726.5964-.514.868.2365.1401.4735.263.7106.3697z" fill="#c36d32" fill-rule="evenodd"/><path d="m47.6531 57.7804c1.7406-2.7921 6.9503-7.5819 13.8647-4.4039-2.4334 3.0049-8.613 8.0927-13.8647 4.4039z" fill="#f79b47"/><path clip-rule="evenodd" d="m46.5035 59.417c-.8689-.6104-1.1094-1.7934-.5476-2.6946 1.0338-1.6584 3.0379-3.843 5.821-5.1844 2.8628-1.3798 6.5206-1.8427 10.5762.0212.5611.2579.9716.7606 1.1122 1.362s-.0045 1.234-.3932 1.7139c-1.3468 1.6632-3.7241 3.9117-6.5738 5.2611-2.8897 1.3684-6.5729 1.9244-9.9948-.4792zm1.8698-1.1876c.3521.1926.7073.3491 1.0644.4725 3.9326 1.3595 8.081-1.2931 10.6403-3.7644.5634-.544 1.0497-1.0793 1.4398-1.561-.6884-.3164-1.36-.5539-2.0129-.7221-4.7613-1.2272-8.5313 1.2232-10.6344 3.5363-.2194.2413-.4207.4812-.6031.7152-.2374.3045-.4427.5992-.6143.8745.2383.1674.4785.3167.7202.449z" fill="#c36d32" fill-rule="evenodd"/><path clip-rule="evenodd" d="m47.8555 57.4701c-.072.1057-.1395.2093-.2024.3103 5.2516 3.6888 11.4313-1.3989 13.8647-4.4039-.4705-.2162-.933-.3956-1.3871-.5412-2.4434 2.7868-7.5797 6.7584-12.2752 4.6348z" fill="#e58c3a" fill-rule="evenodd"/><path d="m41.1372 65.7891c2.0252-2.9671 8.0039-7.9754 15.7174-4.272-2.8104 3.1728-9.8885 8.469-15.7174 4.272z" fill="#f79b47"/><path clip-rule="evenodd" d="m39.9713 67.3762c-.8884-.6396-1.1183-1.8426-.5198-2.7194 1.1836-1.7341 3.4564-3.9954 6.5651-5.3251 3.1845-1.3621 7.2304-1.7297 11.6863.4097.5723.2747.9877.793 1.123 1.401s-.0251 1.2358-.4336 1.6969c-1.5394 1.7379-4.2387 4.0628-7.4307 5.4026-3.2236 1.3531-7.2775 1.8077-10.9903-.8657zm1.6526-1.2603c.4282.2674.8621.4864 1.2998.6614 4.5398 1.8156 9.4747-1.0986 12.4435-3.7703.5754-.5178 1.0769-1.0265 1.4874-1.4899-.6913-.3318-1.3685-.5938-2.0303-.7935-5.5506-1.6749-10.0089 1.0274-12.4325 3.541-.318.3298-.6009.6563-.8467.9692-.15.1909-.2861.3768-.4079.5552.1613.1162.3236.2251.4867.3269z" fill="#c36d32" fill-rule="evenodd"/><path clip-rule="evenodd" d="m41.333 65.5128c-.0689.0938-.1342.186-.1958.2763 5.8289 4.197 12.907-1.0992 15.7174-4.272-.4683-.2248-.9302-.4175-1.3852-.5805-2.8169 2.9655-8.8235 7.2167-14.1364 4.5762z" fill="#e68c3a" fill-rule="evenodd"/><path d="m29.4333 27.8845c-2.2133-1.0804-6.1819-4.5898-4.3494-9.9836 2.4254 1.58 6.6907 5.7886 4.3494 9.9836z" fill="#fecb01"/><path clip-rule="evenodd" d="m31.1797 28.8592c-.5175.9273-1.6695 1.2885-2.6238.8226-1.3844-.6758-3.2449-2.0587-4.517-4.1221-1.3184-2.1388-1.9767-4.9818-.8486-8.3022.1986-.5847.6563-1.0449 1.24-1.2467.5837-.2019 1.2278-.1228 1.7453.2143 1.3859.9028 3.3058 2.5496 4.5802 4.6492 1.2974 2.1373 2.0687 5.0379.4239 7.9849zm-1.4677-1.5456c.1898-.4522.3072-.9031.3627-1.3495.3272-2.632-1.4953-5.1055-3.2929-6.7403-.595-.541-1.1872-.9902-1.6978-1.3229-.2541.7478-.3967 1.4593-.4479 2.1332-.2346 3.0893 1.4507 5.3869 3.1163 6.7532.3334.2734.666.5096.9823.7073.2451.1533.4804.2834.6986.3899.1063-.1903.1989-.3807.2787-.5709z" fill="#b26633" fill-rule="evenodd"/><path d="m29.7877 31.4912c-2.1203-.163-6.4224-1.7173-6.6676-6.6298 2.4495.4965 7.2122 2.5176 6.6676 6.6298z" fill="#dcac01"/><path clip-rule="evenodd" d="m31.7704 31.7538c-.1394 1.0527-1.0772 1.813-2.136 1.7315-1.3685-.1052-3.3537-.6372-5.0796-1.9249-1.797-1.3407-3.2768-3.4854-3.4322-6.5993-.0308-.6169.2251-1.2133.6933-1.616.4683-.4027 1.0963-.5666 1.7016-.4439 1.4273.2894 3.5337 1.0133 5.2661 2.3245 1.7677 1.3378 3.3868 3.5076 2.9868 6.5281zm-1.9406-.8095c.0107-.5332-.0703-1.0283-.2237-1.4867-.651-1.9443-2.6066-3.2277-4.407-3.9589-.7565-.3073-1.4856-.5171-2.079-.6373.0406.8125.1921 1.5332.4264 2.1709.8176 2.2252 2.6428 3.44 4.2763 4.0228.4496.1604.8846.2729 1.2801.3454.2455.045.4758.0746.6848.0907.0247-.1866.0385-.3689.0421-.5469z" fill="#975428" fill-rule="evenodd"/><path d="m31.8997 38.3245c-2.4198.1382-7.5154-.9632-8.5393-6.4746 2.8422.1883 8.5291 1.747 8.5393 6.4746z" fill="#dcac01"/><path clip-rule="evenodd" d="m33.8997 38.3202c.0023 1.0619-.8258 1.9405-1.886 2.001-1.5185.0868-3.7872-.2051-5.8785-1.3671-2.1687-1.205-4.1089-3.3358-4.7412-6.7389-.1128-.6072.0613-1.2325.4716-1.6941s1.0108-.7077 1.627-.6669c1.6274.1079 4.073.5978 6.1828 1.7892 2.1484 1.2132 4.2171 3.3402 4.2243 6.6768zm-2.0357-.6198c-.0562-.492-.1772-.9461-.3516-1.3648-.9922-2.3833-3.7104-3.6198-6.0224-4.1595-.7844-.1831-1.522-.286-2.1296-.3262.1446.7787.3706 1.4693.6588 2.0809 1.2843 2.7254 3.8049 3.8801 5.8774 4.2554.4295.0778.8398.1221 1.2158.14.2841.0135.5487.0119.7873-.0017-.0005-.2145-.0126-.4225-.0357-.6241z" fill="#975428" fill-rule="evenodd"/><path d="m34.0422 46.8658c-2.7383.0086-8.4196-1.5441-9.2392-7.8241 3.1949.3855 9.5155 2.4901 9.2392 7.8241z" fill="#dcac01"/><path clip-rule="evenodd" d="m36.0395 46.9692c-.0549 1.0605-.9291 1.8932-1.991 1.8965-1.6783.0053-4.1697-.4528-6.4096-1.8604-2.3148-1.4548-4.324-3.9119-4.819-7.7048-.08-.6124.1275-1.2274.5621-1.6662s1.0475-.6522 1.6607-.5782c1.8026.2175 4.4915.91 6.7574 2.3559 2.3033 1.4697 4.4279 3.9187 4.2394 7.5572zm-1.9995-.8098c-.0275-.4582-.1058-.8903-.2275-1.2974-.9026-3.0178-4.1953-4.665-6.9106-5.4024-.7682-.2087-1.4903-.3445-2.0989-.4179.1005.7696.274 1.4683.5061 2.1018 1.2727 3.4733 4.309 4.9872 6.7403 5.5023.3866.082.758.1386 1.1045.1739.3198.0325.6183.0469.8883.046.0125-.242.0115-.4774-.0022-.7063z" fill="#975428" fill-rule="evenodd"/><path clip-rule="evenodd" d="m30.8153 46.3077c1.2053.4079 2.3628.5608 3.2271.558.2763-5.3339-6.0444-7.4385-9.2392-7.824.0238.1823.0517.3607.0835.5351 2.8052 1.124 5.8642 3.273 5.9286 6.7309z" fill="#bb890a" fill-rule="evenodd"/><path d="m35.8554 54.3615c-2.8989-.1137-8.8431-2.0122-9.4289-8.6964 3.3645.5514 9.9606 3.0627 9.4289 8.6964z" fill="#dcac01"/><path clip-rule="evenodd" d="m37.8465 54.5494c-.0998 1.0573-1.0084 1.8522-2.0695 1.8105-1.7584-.0689-4.3523-.6603-6.6384-2.2359-2.359-1.6258-4.3541-4.2862-4.7045-8.2843-.0539-.6152.1795-1.2209.6322-1.6409.4528-.42 1.0742-.6073 1.6837-.5074 1.8862.3092 4.6831 1.1579 6.9983 2.7771 2.3514 1.6445 4.4555 4.2956 4.0982 8.0809zm-1.9618-.9356c-.0078-.4414-.0608-.8619-.1532-1.2621-.7757-3.3581-4.3285-5.2931-7.2292-6.1899-.7566-.2339-1.4688-.3972-2.0758-.4967.0672.7668.2049 1.4707.4005 2.1161 1.1765 3.8825 4.4459 5.6495 7.0459 6.2875.3637.0893.7143.1565 1.0443.2042.3369.0488.6523.0774.9381.0886.0242-.2556.0336-.5048.0294-.7477z" fill="#975428" fill-rule="evenodd"/><path clip-rule="evenodd" d="m32.6183 53.6841c1.2027.4449 2.3594.6429 3.2371.6774.5317-5.6337-6.0643-8.145-9.4289-8.6964.0182.2072.0415.4099.0698.6081 2.9357 1.3018 6.1711 3.7262 6.122 7.4109z" fill="#bb890a" fill-rule="evenodd"/><path d="m38.4628 63.3198c-3.1854.1266-9.7953-1.4647-10.7517-8.8431 3.7167.3193 11.0706 2.5348 10.7517 8.8431z" fill="#dcac01"/><path clip-rule="evenodd" d="m40.4547 63.4245c-.0523 1.035-.8804 1.8583-1.9102 1.8992-1.9019.0756-4.7507-.349-7.3149-1.89-2.649-1.5921-4.9324-4.3504-5.4963-8.7006-.078-.6015.1189-1.2058.5355-1.6437.4166-.438 1.0081-.6625 1.6091-.6109 2.066.1774 5.1559.872 7.756 2.4602 2.6533 1.6205 5.0297 4.3527 4.8208 8.4858zm-2.0479-1.4783c-.0296-.2146-.0689-.4237-.1173-.6274-.927-3.9031-5.1843-5.8016-8.5102-6.5232-.7538-.1635-1.4598-.2666-2.0682-.3189.0968.7471.2516 1.4349.455 2.0676 1.4448 4.4953 5.3403 6.2083 8.3056 6.6545.0607.0091.1209.0177.1808.0258.6692.0903 1.2861.116 1.8103.0952.0243-.4814.004-.9389-.056-1.3736z" fill="#975428" fill-rule="evenodd"/><path d="m31.339 31.9812c-1.276-1.7013-2.9454-5.96.5852-9.3846 1.2424 2.1686 2.8648 7.0814-.5852 9.3846z" fill="#fecb01"/><path clip-rule="evenodd" d="m32.4494 33.6446c-.8832.5896-2.0732.3861-2.7104-.4634-.8235-1.098-1.733-2.941-1.9037-5.0876-.1776-2.235.4584-4.7619 2.6963-6.9326.4433-.43 1.0604-.6311 1.672-.5448.6115.0863 1.1489.4503 1.4559.9861.724 1.2637 1.5693 3.3244 1.7265 5.4914.1604 2.2111-.4025 4.8592-2.9366 6.5509zm-.6716-1.9926c.4078-.3437.7265-.7311.9698-1.1488 1.032-1.7717.7068-4.0882.0688-5.9236-.268-.7713-.5913-1.4577-.8923-1.983-.584.5665-1.0257 1.1557-1.3505 1.7525-1.1331 2.0822-.8423 4.2554-.2029 5.8675.176.4437.3784.8449.5847 1.19.1281.2142.2578.4068.3836.5745.1565-.1045.3026-.2143.4388-.3291z" fill="#b26633" fill-rule="evenodd"/><path d="m33.5129 38.8545c-1.3934-1.9831-3.1445-6.8935.9986-10.6697 1.3386 2.5143 3.013 8.1682-.9986 10.6697z" fill="#fecb01"/><path clip-rule="evenodd" d="m34.5712 40.5516c-.9011.5619-2.0842.3216-2.6947-.5472-.8745-1.2446-1.8227-3.3262-1.9381-5.7159-.1197-2.478.6677-5.2502 3.2259-7.5818.4564-.416 1.0795-.5979 1.688-.4926.6086.1052 1.1344.4857 1.4246 1.0308.7665 1.4396 1.6397 3.7759 1.7399 6.1968.1021 2.4652-.6144 5.3444-3.4456 7.1099zm-.5468-2.0564c.3884-.3072.7104-.6495.9742-1.0184 1.5019-2.0998 1.1192-5.0614.3587-7.3105-.2581-.763-.5596-1.444-.8458-1.9815-.5853.5336-1.053 1.0897-1.4207 1.6571-1.6385 2.5284-1.2906 5.2789-.5166 7.2378.1604.4059.3391.7779.5221 1.1068.1384.2485.2792.4725.4166.6681.182-.1136.3524-.2335.5115-.3594z" fill="#b26633" fill-rule="evenodd"/><path d="m35.8298 47.5619c-1.4512-2.322-3.1276-7.9681 1.7762-11.9759 1.357 2.9179 2.9017 9.3981-1.7762 11.9759z" fill="#fecb01"/><path clip-rule="evenodd" d="m36.7951 49.3136c-.93.5125-2.0985.2088-2.6613-.6917-.8894-1.4232-1.8139-3.7817-1.7989-6.4271.0154-2.734 1.0438-5.7368 4.0055-8.1574.4782-.3908 1.1101-.5388 1.7121-.4009.602.1378 1.1066.5461 1.367 1.1061.7657 1.6464 1.5951 4.2962 1.5614 6.984-.0343 2.732-.9949 5.8286-4.1858 7.587zm-.3663-2.126c.3748-.2649.7007-.5593.9825-.8774 2.0882-2.3582 1.7516-6.0245.9464-8.7205-.2278-.7627-.4932-1.4479-.7517-2.0037-.601.4912-1.1031 1.007-1.519 1.5382-2.2801 2.913-1.9655 6.2911-1.1211 8.6285.1342.3718.2819.7172.4347 1.0302.1409.2888.2862.5501.4293.779.2122-.1169.4117-.2419.5989-.3743z" fill="#b26633" fill-rule="evenodd"/><path d="m37.7164 55.1786c-1.4319-2.523-2.9532-8.5748 2.4174-12.5971 1.3055 3.1496 2.6498 10.0783-2.4174 12.5971z" fill="#fecb01"/><path clip-rule="evenodd" d="m38.6067 56.9695c-.951.4727-2.1055.1198-2.6297-.8037-.8685-1.5304-1.7338-4.0463-1.6005-6.8195.1375-2.8617 1.346-5.9597 4.5583-8.3656.4944-.3702 1.132-.4913 1.7276-.3281.5956.1633 1.0824.5925 1.3189 1.1631.732 1.7657 1.4856 4.5897 1.3306 7.4106-.1575 2.8651-1.3005 6.0508-4.7052 7.7432zm-.2395-2.1602c.3709-.2393.7003-.5061.9916-.7957 2.4443-2.4297 2.2151-6.4688 1.4475-9.4065-.2002-.7661-.437-1.4574-.6725-2.0256-.6161.4615-1.1416.9496-1.5868 1.4561-2.6786 3.0469-2.456 6.7566-1.6272 9.3022.116.3561.2438.6894.3772.995.1362.312.2782.595.4194.8438.2299-.1143.4467-.2377.6508-.3693z" fill="#b26633" fill-rule="evenodd"/><path d="m38.3647 63.3894c-.7638-3.0741-.5503-9.9476 6.4139-12.8496.4382 3.7115-.2311 11.4774-6.4139 12.8496z" fill="#fecb01"/><path clip-rule="evenodd" d="m38.7731 65.3159c-1.0687.2372-2.1194-.392-2.3754-1.4222-.4551-1.8315-.6112-4.6993.3546-7.5736.9922-2.9526 3.1703-5.8888 7.2659-7.5954.5859-.2442 1.2492-.2092 1.793.0945.5438.3038.9055.8413.9777 1.4531.2428 2.0567.1888 5.2338-.8173 8.1621-1.0173 2.9608-3.1467 5.9823-7.1985 6.8815zm.0924-2.055c.5129-.1498.9848-.3461 1.4186-.5819 3.5849-1.9484 4.5689-6.5945 4.6013-10.0266.0074-.7828-.0347-1.5025-.1068-2.1126-.7177.2991-1.3637.6403-1.9444 1.0153-4.0518 2.6163-4.9199 6.8725-4.7517 9.8781.0275.4916.0827.9498.1563 1.3618.0376.2107.08.4094.1259.5943.1711-.038.338-.0808.5008-.1284z" fill="#b26633" fill-rule="evenodd"/><path clip-rule="evenodd" d="m51.9666 18.9129c.7767.2881 1.1729 1.1512.8848 1.928-.4601 1.2407-.9173 2.6317-1.4565 4.2721-1.4718 4.4776-3.5544 10.8134-7.974 21.0243-7.2311 16.7068-10.4924 26.3403-8.439 39.5064.1277.8186-.4324 1.5856-1.2509 1.7133-.8186.1276-1.5856-.4324-1.7133-1.251-2.1965-14.0838 1.4025-24.4157 8.6501-41.1603 4.3587-10.0703 6.3642-16.1729 7.8333-20.6432.5566-1.6935 1.0362-3.1528 1.5375-4.5047.2881-.7768 1.1512-1.1729 1.928-.8849z" fill="#8b4e25" fill-rule="evenodd"/><path d="m51.7556 21.5217c-.9668-2.6207-1.4679-8.608 4.2625-11.59165.749 3.19615.9451 9.98915-4.2625 11.59165z" fill="#ffcb45"/><path clip-rule="evenodd" d="m52.3439 23.4332c-1.0149.3123-2.097-.223-2.4646-1.2193-.5904-1.6004-1.0223-4.1402-.4595-6.7704.5813-2.7168 2.2255-5.49148 5.6747-7.28741.5478-.28522 1.1966-.30137 1.7579-.04376.5613.2576.9721.76008 1.113 1.36137.4217 1.7994.6986 4.6118.108 7.2817-.6 2.7131-2.1959 5.5904-5.7295 6.6778zm.0878-2.1609c.4154-.1807.7908-.3983 1.1294-.647 2.6196-1.9236 3.0408-5.7048 2.7875-8.5829-.0697-.7916-.1904-1.5148-.3304-2.11237-.6865.35737-1.2835.75787-1.801 1.19057-2.9307 2.4502-3.3116 5.9314-2.9426 8.4551.0562.3841.1297.746.2142 1.0787.0808.3178.1716.6089.2669.8673.2363-.0728.4615-.1562.676-.2494z" fill="#b26633" fill-rule="evenodd"/><path d="m47.5649 27.494c-2.02-1.9293-5.1009-7.0875-1.2643-12.2856 2.0772 2.542 5.2381 8.558 1.2643 12.2856z" fill="#e9a626"/><path clip-rule="evenodd" d="m48.9332 28.9527c-.7745.7265-1.9818.7211-2.7497-.0124-1.2336-1.1782-2.7375-3.2699-3.3877-5.8799-.6715-2.6959-.4136-5.9108 1.8957-9.0396.3667-.4969.9424-.7965 1.5598-.8118.6174-.0152 1.2072.2557 1.598.7339 1.1694 1.4311 2.6539 3.8359 3.2966 6.4937.653 2.7008.4837 5.9867-2.2127 8.5161zm-.8707-1.9797c.2938-.3448.5354-.7052.7304-1.0774 1.5079-2.8791.2249-6.4607-1.2673-8.9348-.4104-.6805-.8366-1.2771-1.225-1.7524-.4596.6227-.8199 1.2448-1.0946 1.8608-1.5561 3.4888-.3686 6.7833 1.0717 8.8882.2192.3203.4443.6131.6664.8749.2122.2499.4216.4715.6208.6617.1803-.1691.3459-.343.4976-.521z" fill="#8b4e25" fill-rule="evenodd"/><path d="m44.4659 35.9237c-2.3034-1.8088-6.041-6.8797-2.5638-12.6929 2.4252 2.4424 6.3332 8.4003 2.5638 12.6929z" fill="#e9a626"/><path clip-rule="evenodd" d="m45.9688 37.2434c-.7007.7979-1.9028.9091-2.738.2533-1.3949-1.0954-3.1637-3.1115-4.0994-5.7492-.9652-2.7211-1.0222-6.0717 1.0544-9.5434.3171-.53.8612-.8838 1.4742-.9586s1.2263.1378 1.6614.5761c1.3582 1.3679 3.1413 3.7151 4.0751 6.4062.9483 2.7329 1.0989 6.1383-1.4277 9.0156zm-1.0363-1.9138c.2508-.3597.4539-.7288.614-1.1045 1.3709-3.2171-.4038-6.9215-2.2535-9.3765-.4761-.6319-.9571-1.1811-1.3908-1.6178-.3946.6597-.6963 1.3099-.9178 1.9469-1.3521 3.8894.2896 7.285 2.0461 9.348.2405.2824.4832.5399.7206.7703.2467.2393.4878.4494.7149.6277.171-.1948.3262-.393.4665-.5941z" fill="#8b4e25" fill-rule="evenodd"/><path d="m40.727 45.4866c-2.4424-1.9179-6.4056-7.2949-2.7185-13.459 2.5716 2.5898 6.7154 8.9074 2.7185 13.459z" fill="#e9a626"/><path clip-rule="evenodd" d="m42.2299 46.8063c-.7007.7979-1.9028.9092-2.738.2533-1.4644-1.1499-3.3244-3.2699-4.3076-6.0415-1.0128-2.8552-1.0737-6.37 1.1079-10.0171.317-.53.8611-.8838 1.4742-.9586.613-.0748 1.2262.1378 1.6614.576 1.4314 1.4416 3.3101 3.9156 4.2927 6.7474.9971 2.8736 1.1497 6.4337-1.4906 9.4405zm-1.0081-1.9496c.2403-.3446.4392-.6974.6006-1.0561 1.5676-3.4845-.4082-7.5338-2.4202-10.1644-.4782-.6252-.9584-1.1703-1.3936-1.6085-.3917.6547-.697 1.3006-.927 1.9344-1.5378 4.2374.2915 7.9346 2.2031 10.1348.2288.2634.4588.5053.6844.7241.2616.2538.5172.4765.758.6656.1813-.2065.3459-.4167.4947-.6299z" fill="#8b4e25" fill-rule="evenodd"/><path clip-rule="evenodd" d="m39.4226 44.2529c.4487.4989.8977.9143 1.3045 1.2337 3.9969-4.5517-.147-10.8692-2.7185-13.459-.1377.2301-.2647.4592-.3815.687 1.9573 2.8102 4.1806 7.8241 1.7955 11.5383z" fill="#ca8b12" fill-rule="evenodd"/><path d="m38.0593 55.0823c-2.7206-1.8503-7.2991-7.2465-3.8485-14.029 2.9057 2.5511 7.7435 8.9284 3.8485 14.029z" fill="#e9a626"/><path clip-rule="evenodd" d="m39.6489 56.2961c-.6444.844-1.8362 1.0372-2.7142.44-1.616-1.099-3.719-3.1885-4.9486-6.0228-1.2648-2.9154-1.5817-6.5888.4422-10.5669.28-.5505.7987-.9406 1.4052-1.0572.6065-.1165 1.2328.0537 1.6969.4611 1.6082 1.4119 3.7603 3.8769 4.9952 6.7781 1.2522 2.9419 1.6612 6.6443-.8767 9.9677zm-1.1123-1.9155c.2066-.3442.3771-.6929.5146-1.0447 1.515-3.8754-.9704-8.1262-3.3379-10.7817-.5211-.5846-1.0366-1.0919-1.5024-1.5009-.3436.6753-.6076 1.3369-.8017 1.9826-1.4157 4.7087.8826 8.5732 3.1102 10.7667.2324.2289.464.4396.6906.6311.2949.2493.5812.4662.8494.6486.1767-.2314.3355-.4655.4772-.7017z" fill="#8b4e25" fill-rule="evenodd"/><path clip-rule="evenodd" d="m36.3196 53.6014c.6017.6191 1.2065 1.1181 1.7398 1.4809 3.895-5.1007-.9428-11.478-3.8485-14.0291-.1088.2139-.2096.4264-.3028.6375 2.1251 2.858 4.5814 7.9366 2.4115 11.9107z" fill="#ca8b12" fill-rule="evenodd"/><path d="m36.5168 65.6519c-3.2815-1.5177-9.133-6.5391-6.2869-14.4827 3.5877 2.2425 9.8678 8.2784 6.2869 14.4827z" fill="#e9a626"/><path clip-rule="evenodd" d="m38.2424 66.6524c-.518.8976-1.6302 1.2533-2.5657.8206-1.9215-.8887-4.5343-2.7577-6.2944-5.5859-1.8125-2.9123-2.6776-6.7913-1.0297-11.3906.2045-.571.655-1.0192 1.2254-1.2193.5703-.2001 1.1992-.1306 1.7107.1891 1.9705 1.2317 4.6966 3.5023 6.4737 6.4038 1.8096 2.9546 2.7604 6.8313.48 10.7823zm-1.0725-2.4162c.05-.1434.0953-.2866.1358-.4294 1.3144-4.631-2.2778-8.9603-5.3769-11.4286-.5975-.4759-1.1767-.8826-1.6988-1.209-.2508.6999-.434 1.3771-.5575 2.0312-1.2775 6.77 3.852 11.0675 6.8443 12.4515.2733-.4734.4891-.9459.6531-1.4157z" fill="#8b4e25" fill-rule="evenodd"/><path clip-rule="evenodd" d="m34.3666 64.3529c.759.5658 1.5045 1.0003 2.1504 1.299 3.4993-6.063-2.4183-11.9653-6.0378-14.3237 2.7892 2.9359 6.1751 8.3149 3.8874 13.0247z" fill="#ca8c13" fill-rule="evenodd"/><path d="m49.7345 29.2823c.1178-2.7908 1.9626-8.5088 8.4002-9.0538-.5405 3.238-2.9773 9.5819-8.4002 9.0538z" fill="#ffcb45"/><path clip-rule="evenodd" d="m49.5407 31.2729c-1.0569-.1029-1.8491-1.0139-1.8044-2.0749.0719-1.7043.6521-4.2144 2.185-6.4246 1.5833-2.2829 4.1698-4.2097 8.0447-4.5378.6154-.0521 1.2203.183 1.639.6371.4186.454.6041 1.0759.5024 1.6851-.3043 1.8229-1.1326 4.5248-2.7063 6.7609-1.5993 2.2723-4.1807 4.3125-7.8604 3.9542zm.9137-1.9602c.453-.0066.8832-.0628 1.2916-.1617 3.1585-.7657 5.0043-4.0924 5.8796-6.846.2407-.7572.408-1.4712.5091-2.0765-.7711.0653-1.4764.2048-2.1207.4046-3.6485 1.1316-5.3415 4.1972-5.9735 6.6682-.0962.3761-.1678.7384-.218 1.078-.0479.3243-.0763.6279-.0879.903.246.024.4859.0338.7198.0304z" fill="#b26633" fill-rule="evenodd"/><path d="m46.5044 37.6936c.3223-2.911 2.6601-8.7606 9.4331-8.8714-.7965 3.3485-3.7982 9.8107-9.4331 8.8714z" fill="#ffcb45"/><path clip-rule="evenodd" d="m46.1755 39.6664c-1.0474-.1746-1.7758-1.1374-1.6589-2.1929.1951-1.7628.9755-4.3288 2.7233-6.5147 1.8031-2.2549 4.6201-4.0701 8.6649-4.1362.6175-.0101 1.205.2656 1.5918.7471.3868.4814.5295 1.1146.3866 1.7154-.4461 1.8753-1.5003 4.6281-3.2944 6.8405-1.8221 2.2468-4.6362 4.1704-8.4133 3.5408zm1.0797-1.8897c.4379.0235.8586.0014 1.2622-.0607 3.4564-.5315 5.6682-3.9928 6.7788-6.8589.2859-.7377.4988-1.4361.6413-2.0348-.7687.0126-1.4802.099-2.1382.2468-4.0177.902-6.0373 4.0873-6.8639 6.6676-.1132.3533-.204.6953-.2746 1.0185-.0732.3358-.1246.6514-.1564.9384.2557.0426.5059.07.7508.0831z" fill="#b26633" fill-rule="evenodd"/><path d="m42.828 47.3635c.3418-3.0866 2.8207-9.2893 10.0024-9.4067-.8445 3.5506-4.0274 10.4027-10.0024 9.4067z" fill="#ffcb45"/><path clip-rule="evenodd" d="m42.4992 49.3363c-1.0475-.1746-1.7759-1.1374-1.659-2.1928.2049-1.8506 1.0254-4.5489 2.862-6.8458 1.8919-2.366 4.8463-4.2711 9.0955-4.3406.6175-.0101 1.2051.2656 1.5919.7471s.5294 1.1146.3865 1.7154c-.4701 1.9764-1.5815 4.8772-3.4695 7.2053-1.9159 2.3625-4.8604 4.3694-8.8074 3.7114zm1.125-1.8846c.4195.0225.8241.0055 1.2139-.0465 3.7874-.5054 6.1862-4.3194 7.3604-7.416.2791-.736.489-1.4315.6319-2.0324-.7628.0125-1.4726.0936-2.1324.2324-4.4113.9277-6.5882 4.4316-7.4497 7.216-.1031.3333-.1874.6563-.2544.9633-.0777.3561-.1322.6907-.1659.9951.2711.0452.5365.0742.7962.0881z" fill="#b26633" fill-rule="evenodd"/><path d="m40.359 56.9865c.1376-3.2874 2.3084-10.0231 9.8908-10.6675-.6354 3.8141-3.5031 11.2874-9.8908 10.6675z" fill="#ffcb45"/><path clip-rule="evenodd" d="m40.1657 58.9771c-1.0569-.1026-1.8495-1.0133-1.805-2.0743.0817-1.9525.7482-4.8412 2.508-7.3804 1.8103-2.612 4.7644-4.8183 9.2117-5.1963.6154-.0523 1.2204.1827 1.6392.6365.4189.4539.6045 1.0758.503 1.685-.3517 2.111-1.3113 5.2394-3.1252 7.8184-1.8394 2.6153-4.7696 4.915-8.9317 4.5111zm1.0411-1.9552c.4013-.0059.7876-.0449 1.159-.1136 4.0917-.7563 6.393-5.1094 7.401-8.5213.2219-.7511.3811-1.4566.483-2.068-.755.0641-1.4563.1887-2.1073.3642-4.7474 1.28-6.8191 5.2706-7.5083 8.32-.0719.3181-.1288.626-.1721.9195-.0563.382-.0896.7396-.1032 1.0638.2898.0281.5724.0395.8479.0354z" fill="#b26633" fill-rule="evenodd"/><path d="m36.3818 65.6715c.817-3.4982 4.5835-10.3276 13.1139-9.6598-1.475 3.9736-6.1626 11.4685-13.1139 9.6598z" fill="#ffcb45"/><g clip-rule="evenodd" fill-rule="evenodd"><path d="m35.8678 67.5727c-1.0593-.2757-1.7082-1.3144-1.4668-2.3482.4775-2.0445 1.7803-4.974 4.1989-7.3366 2.4778-2.4203 6.1179-4.2242 11.0457-3.8384.6328.0495 1.2074.3828 1.5531.9009s.4229 1.1614.2085 1.739c-.8079 2.1765-2.4854 5.3193-4.9781 7.7214-2.5174 2.426-6.1335 4.314-10.5613 3.1619zm1.086-1.7721c.4958.0947.9796.1422 1.4509.1473 4.8891.0536 8.4386-4.4461 10.2421-8.0097.3496-.6906.6335-1.3461.8489-1.9265-.7644-.0598-1.4905-.0594-2.1797-.0067-5.781.4426-8.9624 4.5727-10.3147 7.7919-.1775.4223-.3234.829-.4396 1.2096-.0709.2321-.1307.4546-.1798.665.1924.0501.383.093.5719.1291z" fill="#b26633"/><path d="m48.5913 40.3721c.3467.4299.2793 1.0595-.1506 1.4062-.2968.2393-.7684.6524-1.1949 1.0934-.4638.4796-.74.8578-.8091 1.042-.1939.5171-.7703.7791-1.2875.5852-.5171-.194-.7791-.7704-.5851-1.2875.2309-.6158.788-1.2585 1.244-1.73.4933-.5101 1.0279-.9783 1.377-1.2599.4299-.3467 1.0594-.2793 1.4062.1506z" fill="#fff"/><path d="m45.2577 50.2205c.1734.215.1397.5298-.0753.7031-.3098.2499-.7972.6768-1.2404 1.1351-.4618.4776-.8083.9219-.9178 1.2139-.097.2586-.3852.3896-.6437.2926-.2586-.0969-.3896-.3852-.2926-.6437.1905-.5079.6774-1.0845 1.1353-1.558.4766-.4928.9954-.9472 1.3314-1.2182.215-.1734.5298-.1397.7031.0752z" fill="#ffe5a4"/><path d="m51.7018 31.6513c.1734.215.1397.5298-.0753.7031-.3098.2499-.7972.6768-1.2404 1.1351-.4618.4775-.8083.9218-.9178 1.2139-.097.2586-.3852.3896-.6437.2926-.2586-.097-.3896-.3852-.2926-.6437.1904-.5079.6773-1.0845 1.1353-1.558.4766-.4928.9954-.9473 1.3314-1.2183.215-.1733.5298-.1396.7031.0753z" fill="#ffe5a4"/><path d="m55.418 22.5846c.1734.2149.1397.5297-.0753.703-.3098.2499-.7972.6768-1.2404 1.1351-.4618.4776-.8083.9219-.9178 1.214-.097.2585-.3852.3895-.6438.2925-.2585-.0969-.3895-.3851-.2925-.6437.1904-.5079.6773-1.0844 1.1353-1.558.4766-.4928.9954-.9472 1.3314-1.2182.215-.1734.5298-.1397.7031.0753z" fill="#ffe5a4"/><path d="m42.8156 59.8195c.1734.2149.1396.5297-.0753.7031-.3098.2499-.7972.6767-1.2404 1.135-.4619.4776-.8083.9219-.9178 1.214-.097.2585-.3852.3895-.6438.2926-.2585-.097-.3895-.3852-.2926-.6438.1905-.5079.6774-1.0844 1.1354-1.558.4765-.4928.9954-.9472 1.3314-1.2182.215-.1734.5297-.1397.7031.0753z" fill="#ffe5a4"/></g></svg>