<?xml version="1.0" ?><svg viewBox="0 0 64 64" xmlns="http://www.w3.org/2000/svg"><defs><style>.cls-1{fill:none;stroke:#000;stroke-linecap:round;stroke-linejoin:round;stroke-width:2px;}</style></defs><title/><g data-name="Layer 6" id="Layer_6"><path class="cls-1" d="M50.39,17.46V46.54a4.64,4.64,0,0,1-4.62,4.63H17.18a4.64,4.64,0,0,1-4.62-4.62V17.46a4.64,4.64,0,0,1,4.62-4.63H45.77"/><circle cx="50.44" cy="14.13" r="1"/><path class="cls-1" d="M30.3,28.31l-1.95-1.95-.87.87a3.07,3.07,0,0,0,0,4.34l4.78,4.78a3.07,3.07,0,0,0,4.34,0l.87-.87L36,34"/><path class="cls-1" d="M43.4,32a11.4,11.4,0,0,1-17.09,9.88l-2.59.69-3.12.83.83-3.12.69-2.59A11.4,11.4,0,1,1,43.4,32Z"/></g></svg>